<?xml version="1.0" encoding="utf-8"?>
<!-- Generator: Adobe Illustrator 17.1.0, SVG Export Plug-In . SVG Version: 6.00 Build 0)  -->
<!DOCTYPE svg PUBLIC "-//W3C//DTD SVG 1.1//EN" "http://www.w3.org/Graphics/SVG/1.1/DTD/svg11.dtd">
<svg version="1.1" id="Layer_1" xmlns="http://www.w3.org/2000/svg" xmlns:xlink="http://www.w3.org/1999/xlink" x="0px" y="0px"
	 viewBox="0 0 300 25" enable-background="new 0 0 300 25" xml:space="preserve">
<g>
	<path fill="#666766" d="M11.3,7.5L4.2,11v0.3l7.1,3.4L10,17.1l-8.2-4.5V9.7l8.4-4.5L11.3,7.5z"/>
	<path fill="#666766" d="M16,18.3V3.4c8.1-1,11.7,1.3,11.7,7.2C27.7,16.2,23.3,19.3,16,18.3z M18.8,5.7V16c4.6,0.5,6-1.2,6-4.9
		C24.8,7.4,23.4,5.3,18.8,5.7z"/>
	<path fill="#666766" d="M30.6,12.4c0-3.6,2.6-6.5,5.7-6.5c3.2,0,4.7,2.7,4.3,7l-7.1,0.2c0.4,2.4,2.3,2.9,6.9,3.1l-0.3,2.4
		C32.6,18.7,30.6,16.4,30.6,12.4z M33.3,11.3l4.6-0.1c-0.1-1.7-0.7-2.7-2.2-2.7C34.2,8.4,33.4,9.1,33.3,11.3z"/>
	<path fill="#666766" d="M51.6,8.6c-3.7-0.3-5,0-5,0.8c0,1.5,5.7,2,5.7,5.3c0,1.9-2,3.9-8.2,3.8l0.1-2.6c4,0.2,5.3,0,5.3-1
		c0-1.5-5.7-2-5.7-5.1c0-1.9,2-4.2,7.7-3.9L51.6,8.6z"/>
	<path fill="#666766" d="M55.2,18.3v-2.2h3.5V8.6l-3.6-0.2l0.2-2.1h6.1v9.8H65l-0.3,2.2H55.2z M58.6,4.5l0.2-3.2h2.9l-0.2,3.2H58.6z
		"/>
	<path fill="#666766" d="M68.3,19.9c5.2-0.6,5.8-0.7,5.9-3.6c-0.8,0.5-1.8,0.9-3,0.9c-2.5,0-4.4-1.9-4.4-5c0-3.8,3-6.2,6.6-6.2
		c1.1,0,2.2,0.2,3.4,0.5c0,2.2,0.1,4.9,0.1,8.1c0,4.4-1.5,7.6-8.3,8L68.3,19.9z M74.2,14.6V8.7c-0.7-0.2-1.4-0.3-2.1-0.3
		c-1.7,0-2.6,1-2.6,3c0,2.4,1.3,3.5,2.8,3.5C72.9,14.9,73.6,14.8,74.2,14.6z"/>
	<path fill="#666766" d="M83.7,9.1c0.1,2.3,0.1,5.4,0.1,9.3h-2.7c0-5.6-0.1-9.2-0.3-11.9l2.5-0.2l0.2,1.3c1-0.8,2.2-1.6,4-1.6
		c2.2,0,3.7,1.2,3.7,4.3v8.1h-2.7v-7.1c0-2.2-0.8-2.8-2.1-2.8C85.3,8.3,84.5,8.6,83.7,9.1z"/>
	<path fill="#666766" d="M94.7,12.4c0-3.6,2.6-6.5,5.7-6.5c3.2,0,4.7,2.7,4.3,7l-7.1,0.2c0.4,2.4,2.3,2.9,6.9,3.1l-0.3,2.4
		C96.6,18.7,94.7,16.4,94.7,12.4z M97.4,11.3l4.6-0.1c-0.1-1.7-0.7-2.7-2.2-2.7C98.3,8.4,97.5,9.1,97.4,11.3z"/>
	<path fill="#666766" d="M107.8,18.3v-2.2h2.5c0-3.1-0.1-5.6-0.1-7.5l-2.5-0.2l0.2-2.1h4.6l0.3,2.1c1-1.2,2.5-2.2,4.4-2.5l0.2,3
		c-1.7,0.1-3.1,0.5-4.5,1c0.1,1.7,0.1,3.8,0.1,6.3h3.1l-0.3,2.2H107.8z"/>
	<path fill="#666766" d="M136.6,16.2c-1.7,1.7-3.5,2.4-5.3,2.4c-2.6,0-4.1-1.5-4.1-3.6c0-2,1.3-3.3,3.6-4.5
		c-1.1-1.2-1.6-2.1-1.6-3.1c0-2.2,1.9-4.5,8.1-4.4l0.3,2.7c-4.6-0.1-5.7,0.3-5.7,1.4c0,0.9,1.3,2.1,4.8,5.2c0.6-1.3,1.1-2.8,1.4-3.9
		l2.6,0.3c-0.7,2-1.5,3.7-2.4,5.1c0.9,0.8,1.8,1.7,2.9,2.7l-2.2,2C138.1,17.8,137.3,17,136.6,16.2z M135,14.7
		c-1.2-1.2-2.2-2.1-3-2.9c-1.3,0.8-2,1.7-2,2.6c0,1,0.8,1.8,2.2,1.8C133.1,16.2,134,15.8,135,14.7z"/>
	<path fill="#666766" d="M152,18.3V3.4c8.1-1,11.7,1.3,11.7,7.2C163.6,16.2,159.3,19.3,152,18.3z M154.8,5.7V16c4.6,0.5,6-1.2,6-4.9
		C160.8,7.4,159.3,5.3,154.8,5.7z"/>
	<path fill="#666766" d="M166.5,12.4c0-3.6,2.6-6.5,5.7-6.5c3.2,0,4.7,2.7,4.3,7l-7.1,0.2c0.4,2.4,2.3,2.9,6.9,3.1l-0.3,2.4
		C168.5,18.7,166.5,16.4,166.5,12.4z M169.3,11.3l4.6-0.1c-0.1-1.7-0.7-2.7-2.2-2.7C170.2,8.4,169.4,9.1,169.3,11.3z"/>
	<path fill="#666766" d="M187.5,6.3h2.8c-1.2,4-2.5,8.1-4,12.1h-3.4c-1.4-4-2.8-8-3.9-12l2.8-0.2c0.9,3.1,1.9,6.3,2.9,9.5h0.2
		C185.8,12.5,186.6,9.4,187.5,6.3z"/>
	<path fill="#666766" d="M192.4,12.4c0-3.6,2.6-6.5,5.7-6.5c3.2,0,4.7,2.7,4.3,7l-7.1,0.2c0.4,2.4,2.3,2.9,6.9,3.1l-0.3,2.4
		C194.3,18.7,192.4,16.4,192.4,12.4z M195.1,11.3l4.6-0.1c-0.1-1.7-0.7-2.7-2.2-2.7C196,8.4,195.2,9.1,195.1,11.3z"/>
	<path fill="#666766" d="M205.1,18.3v-2.2h3V3.8L205,3.6l0.2-2.1h5.6v14.6h3.1l-0.3,2.2H205.1z"/>
	<path fill="#666766" d="M216.1,12.6c0-4,2.8-6.7,6-6.7c2.9,0,5,2.2,5,6c0,4-2.8,6.7-6,6.7C218.3,18.6,216.1,16.4,216.1,12.6z
		 M224.5,12.6c0-2.8-1.2-4.3-3-4.3c-1.8,0-2.7,1.2-2.7,3.8c0,2.8,1.2,4.3,3,4.3C223.5,16.3,224.5,15.1,224.5,12.6z"/>
	<path fill="#666766" d="M230.9,22.5v-4.2c0-6.8,0-9.6-0.2-11.9l2.5-0.2l0.2,1.1c0.8-0.7,1.9-1.3,3.2-1.3c2.5,0,4.6,2.2,4.6,5.7
		c0,4.5-3.3,7-7.5,7v3.6L230.9,22.5z M238.4,12.5c0-2.9-1.3-4.3-3-4.3c-0.6,0-1.3,0.2-2,0.6c0,1.6,0.1,3.6,0.1,7
		c0.7,0.2,1.3,0.3,1.9,0.3C237.4,16.2,238.4,15,238.4,12.5z"/>
	<path fill="#666766" d="M244.1,12.4c0-3.6,2.6-6.5,5.7-6.5c3.2,0,4.7,2.7,4.3,7l-7.1,0.2c0.4,2.4,2.3,2.9,6.9,3.1l-0.3,2.4
		C246.1,18.7,244.1,16.4,244.1,12.4z M246.8,11.3l4.6-0.1c-0.1-1.7-0.7-2.7-2.2-2.7C247.7,8.4,246.9,9.1,246.8,11.3z"/>
	<path fill="#666766" d="M257.3,18.3v-2.2h2.5c0-3.1-0.1-5.6-0.1-7.5l-2.5-0.2l0.2-2.1h4.6l0.3,2.1c1-1.2,2.5-2.2,4.4-2.5l0.2,3
		c-1.7,0.1-3.1,0.5-4.5,1c0.1,1.7,0.1,3.8,0.1,6.3h3.1l-0.3,2.2H257.3z"/>
	<path fill="#666766" d="M287.4,1.7l-9.8,21l-2.5-0.5L285.1,1L287.4,1.7z"/>
	<path fill="#666766" d="M289.5,14.7l7.1-3.5V11l-7.1-3.4l1.3-2.4l8.2,4.5v2.9l-8.4,4.5L289.5,14.7z"/>
</g>
</svg>
