<?xml version="1.0" encoding="utf-8"?>
<!-- Generator: Adobe Illustrator 17.1.0, SVG Export Plug-In . SVG Version: 6.00 Build 0)  -->
<!DOCTYPE svg PUBLIC "-//W3C//DTD SVG 1.1//EN" "http://www.w3.org/Graphics/SVG/1.1/DTD/svg11.dtd">
<svg version="1.1" id="Layer_1" xmlns="http://www.w3.org/2000/svg" xmlns:xlink="http://www.w3.org/1999/xlink" x="0px" y="0px" viewBox="0 0 216 94.5" enable-background="new 0 0 216 78.3" xml:space="preserve">
		<!-- 1st Row <!DOCTYPE html> -->
		<rect x="1.5" y="0" fill="#B3B2B2" width="1.5" height="2.7" id="1.0"/>
		<rect x="8" y="0" fill="#F0F0F0" width="3" height="2.7" id="1.1"/>
		<rect x="11" y="0" fill="#DC087D" width="10.5" height="2.7" id="1.2"/>
		<rect x="21.5" y="0" fill="#F0F0F0" width="7.5" height="2.7" id="1.3"/>

		<!-- 2nd Row <html lang="en"> -->
		<rect x="1.5" y="5.4" fill="#B3B2B2" width="1.5" height="2.7" id="2.0"/>
		<rect x="8" y="5.4" fill="#F0F0F0" width="1.5" height="2.7" id="2.1"/>
		<rect x="9.5" y="5.4" fill="#DC087D" width="6" height="2.7" id="2.2"/>
		<rect x="17" y="5.4" fill="#1FB4B6" width="6" height="2.7" id="2.3"/>
		<rect x="23" y="5.4" fill="#F0F0F0" width="1.5" height="2.7" id="2.4"/>
		<rect x="24.5" y="5.4" fill="#FFD207" width="6" height="2.7" id="2.5"/>
		<rect x="30.5" y="5.4" fill="#F0F0F0" width="1.5" height="2.7" id="2.6"/>

		<!-- 3rd Row <head> -->
		<rect x="1.5" y="10.8" fill="#B3B2B2" width="1.5" height="2.7" id="3.0"/>
		<rect x="12" y="10.8" fill="#F0F0F0" width="1.5" height="2.7" id="3.1"/>
		<rect x="13.5" y="10.8" fill="#DC087D" width="6" height="2.7" id="3.2"/>
		<rect x="19.5" y="10.8" fill="#F0F0F0" width="1.5" height="2.7" id="3.3"/>

		<!-- 4th Row <meta charset="UTF-8"> -->
		<rect x="1.5" y="16.2" fill="#B3B2B2" width="1.5" height="2.7" id="4.0"/>
		<rect x="18" y="16.2" fill="#F0F0F0" width="1.5" height="2.7" id="4.1"/>
		<rect x="19.5" y="16.2" fill="#DC087D" width="6" height="2.7" id="4.2"/>
		<rect x="27" y="16.2" fill="#1FB4B6" width="10.5" height="2.7" id="4.3"/>
		<rect x="37.5" y="16.2" fill="#F0F0F0" width="1.5" height="2.7" id="4.4"/>
		<rect x="39" y="16.2" fill="#FFD207" width="10.5" height="2.7" id="4.5"/>
		<rect x="49.5" y="16.2" fill="#F0F0F0" width="1.5" height="2.7" id="4.6"/>

		<!-- 5th Row <meta name="viewport" content="width=device-width, initial-scale=1.0"> -->
		<rect x="1.5" y="21.6" fill="#B3B2B2" width="1.5" height="2.7" id="8.0"/>
		<rect x="18" y="21.6" fill="#F0F0F0" width="1.5" height="2.7" id="8.1"/>
		<rect x="19.5" y="21.6" fill="#DC087D" width="6" height="2.7" id="8.2"/>
		<rect x="27" y="21.6" fill="#1FB4B6" width="6" height="2.7" id="8.3"/>
		<rect x="33" y="21.6" fill="#F0F0F0" width="1.5" height="2.7" id="8.4"/>
		<rect x="34.5" y="21.6" fill="#FFD207" width="15" height="2.7" id="8.5"/>
		<rect x="51" y="21.6" fill="#1FB4B6" width="10.5" height="2.7" id="8.6"/>
		<rect x="61.5" y="21.6" fill="#F0F0F0" width="1.5" height="2.7" id="8.7"/>
		<rect x="63" y="21.6" fill="#FFD207" width="55.5" height="2.7" id="8.8"/>
		<rect x="118.5" y="21.6" fill="#F0F0F0" width="1.5" height="2.7" id="8.9"/>

		<!-- 6th Row <title>Stephanie Rentfrow</title> -->
		<rect x="1.5" y="27" fill="#B3B2B2" width="1.5" height="2.7" id="5.0"/>
		<rect x="18" y="27" fill="#F0F0F0" width="1.5" height="2.7" id="5.1"/>
		<rect x="19.5" y="27" fill="#DC087D" width="9" height="2.7" id="5.2"/>
		<rect x="28.5" y="27" fill="#F0F0F0" width="85" height="2.7" id="5.3"/>
		<rect x="113.5" y="27" fill="#DC087D" width="9" height="2.7" id="5.4"/>
		<rect x="122.5" y="27" fill="#F0F0F0" width="1.5" height="2.7" id="5.5"/>

		<!-- 7th Row <link rel="stylesheet" href="css/styles.min.css"> -->
		<rect x="1.5" y="32.4" fill="#B3B2B2" width="1.5" height="2.7" id="6.0"/>
		<rect x="18" y="32.4" fill="#F0F0F0" width="1.5" height="2.7" id="6.1"/>
		<rect x="19.5" y="32.4" fill="#DC087D" width="6" height="2.7" id="6.2"/>
		<rect x="27" y="32.4" fill="#1FB4B6" width="4.5" height="2.7" id="6.3"/>
		<rect x="31.5" y="32.4" fill="#F0F0F0" width="1.5" height="2.7" id="6.4"/>
		<rect x="33" y="32.4" fill="#FFD207" width="18" height="2.7" id="6.5"/>
		<rect x="52.5" y="32.4" fill="#1FB4B6" width="6" height="2.7" id="6.6"/>
		<rect x="58.5" y="32.4" fill="#F0F0F0" width="1.5" height="2.7" id="6.7"/>
		<rect x="60" y="32.4" fill="#FFD207" width="63" height="2.7" id="6.8"/>
		<rect x="123" y="32.4" fill="#F0F0F0" width="1.4" height="2.7" id="6.9"/>

		<!-- 7th Row -->
		<!-- <rect x="1.5" y="36.5" fill="#B3B2B2" width="1.5" height="2.7" id="7.0"/>
		<rect x="18.1" y="36.5" fill="#F0F0F0" width="1.4" height="2.7" id="7.1"/>
		<rect x="19.5" y="36.5" fill="#DC087D" width="8.3" height="2.7" id="7.2"/>
		<rect x="28.8" y="36.5" fill="#1FB4B6" width="4.1" height="2.7" id="7.3"/>
		<rect x="32.9" y="36.5" fill="#F0F0F0" width="1.4" height="2.7" id="7.4"/>
		<rect x="34.2" y="36.5" fill="#FFD207" width="21.7" height="2.7" id="7.5"/>
		<rect x="56.8" y="36.5" fill="#1FB4B6" width="7.2" height="2.7" id="7.6"/>
		<rect x="64" y="36.5" fill="#F0F0F0" width="1.4" height="2.7" id="7.7"/>
		<rect x="65.3" y="36.5" fill="#FFD207" width="47.2" height="2.7" id="7.8"/>
		<rect x="112.4" y="36.5" fill="#F0F0F0" width="1.4" height="2.7" id="7.9"/> -->

		
		<!-- 8th Row </head> -->
		<rect x="1.5" y="37.8" fill="#B3B2B2" width="1.5" height="2.7" id="9.0"/>
		<rect x="12" y="37.8" fill="#F0F0F0" width="3" height="2.7"/>
		<rect x="15" y="37.8" fill="#DC087D" width="6" height="2.7"/>
		<rect x="21" y="37.8" fill="#F0F0F0" width="1.5" height="2.7"/>

		<!-- 9th Row <body> -->
		<rect x="1.5" y="43.2" fill="#B3B2B2" width="1.5" height="2.7" id="10.0"/>
		<rect x="12" y="43.2" fill="#F0F0F0" width="1.5" height="2.7"/>
		<rect x="13.5" y="43.2" fill="#DC087D" width="6" height="2.7"/>
		<rect x="19.5" y="43.2" fill="#F0F0F0" width="1.5" height="2.7"/>

		<!-- 9.5 -->
		<rect x="0" y="48.6" fill="#B3B2B2" width="3" height="2.7"/>
		<rect x="18" y="48.6" fill="#F0F0F0" width="1.5" height="2.7"/>
		<rect x="19.5" y="48.6" fill="#DC097D" width="4.5" height="2.7"/>
		<rect x="24" y="48.6" fill="#F0F0F0" width="1.5" height="2.7"/>

		<!-- 10th Row -->
		<rect x="0" y="54" fill="#B3B2B2" width="3" height="2.7" id="11.0"/>
		<rect x="24" y="54" fill="#F0F0F0" width="1.5" height="2.7"/>
		<rect x="25.5" y="54" fill="#DC087D" width="1.5" height="2.7"/>
		<rect x="28.5" y="54" fill="#1FB4B6" width="7.5" height="2.7"/>
		<rect x="36" y="54" fill="#F0F0F0" width="1.5" height="2.7"/>
		<rect x="37.5" y="54" fill="#FFD207" width="14" height="2.7"/>
		<rect x="51.5" y="54" fill="#F0F0F0" width="165" height="2.7"/>

		<!-- 11th Row -->
		<rect x="0" y="59.4" fill="#B3B2B2" width="3" height="2.7" id="12.0"/>
		<rect x="24" y="59.4" fill="#F0F0F0" width="192" height="2.7"/>

		<!-- 12th Row -->
		<rect x="0" y="64.8" fill="#B3B2B2" width="3" height="2.7" id="13.0"/>
		<rect x="24" y="64.8" fill="#F0F0F0" width="102" height="2.7"/>
		<rect x="126" y="64.8" fill="#DC087D" width="1.5" height="2.7"/>
		<rect x="127.5" y="64.8" fill="#F0F0F0" width="1.5" height="2.7"/>

		<!-- 12.5 -->
		<rect x="0" y="70.2" fill="#B3B2B2" width="3" height="2.7" id="13.0"/>
		<rect x="18" y="70.2" fill="#F0F0F0" width="3" height="2.7"/>
		<rect x="21" y="70.2" fill="#DC087D" width="4.5" height="2.7" />
		<rect x="25.5" y="70.2" fill="#F0F0F0" width="1.5" height="2.7" />
		
		<!-- 13th Row -->
		<rect x="0" y="75.6" fill="#B3B2B2" width="3" height="2.7" id="14.0"/>
		<rect x="18" y="75.6" fill="#F0F0F0" width="1.5" height="2.7"/>
		<rect x="19.5" y="75.6" fill="#DC087D" width="9" height="2.7"/>
		<rect x="30" y="75.6" fill="#1FB4B6" width="6" height="2.7"/>
		<rect x="36" y="75.6" fill="#F0F0F0" width="1.5" height="2.7"/>
		<rect x="37.5" y="75.6" fill="#FFD207" width="22.5" height="2.7"/>
		<rect x="61.5" y="75.6" fill="#1FB4B6" width="4.5" height="2.7"/>
		<rect x="66" y="75.6" fill="#F0F0F0" width="1.5" height="2.7"/>
		<rect x="67.5" y="75.6" fill="#FFD207" width="30" height="2.7"/>
		<rect x="97.5" y="75.6" fill="#F0F0F0" width="4.5" height="2.7"/>
		<rect x="102" y="75.6" fill="#DC087D" width="9" height="2.7"/>
		<rect x="111" y="75.6" fill="#F0F0F0" width="1.5" height="2.7"/>

		<!-- 14th Row -->
		<rect x="0" y="81" fill="#B3B2B2" width="3" height="2.7" id="14.0"/>
		<rect x="18" y="81" fill="#F0F0F0" width="1.5" height="2.7"/>
		<rect x="19.5" y="81" fill="#DC087D" width="9" height="2.7"/>
		<rect x="30" y="81" fill="#1FB4B6" width="6" height="2.7"/>
		<rect x="36" y="81" fill="#F0F0F0" width="1.5" height="2.7"/>
		<rect x="37.5" y="81" fill="#FFD207" width="22.5" height="2.7"/>
		<rect x="61.5" y="81" fill="#1FB4B6" width="4.5" height="2.7"/>
		<rect x="66" y="81" fill="#F0F0F0" width="1.5" height="2.7"/>
		<rect x="67.5" y="81" fill="#FFD207" width="36" height="2.7"/>
		<rect x="103.5" y="81" fill="#F0F0F0" width="4.5" height="2.7"/>
		<rect x="108" y="81" fill="#DC087D" width="9" height="2.7"/>
		<rect x="117" y="81" fill="#F0F0F0" width="1.5" height="2.7"/>

		<!-- 15th Row -->
		<rect x="0" y="86.4" fill="#B3B2B2" width="3" height="2.7" id="16.0"/>
		<rect x="12" y="86.4" fill="#F0F0F0" width="3" height="2.7"/>
		<rect x="15" y="86.4" fill="#DC087D" width="6" height="2.7"/>
		<rect x="21" y="86.4" fill="#F0F0F0" width="1.5" height="2.7"/>
		<!-- 16th Row -->
		<rect x="0" y="91.8" fill="#B3B2B2" width="3" height="2.7" id="17.0"/>
		<rect x="8" y="91.8" fill="#F0F0F0" width="3" height="2.7"/>
		<rect x="11" y="91.8" fill="#DC087D" width="6" height="2.7"/>
		<rect x="17" y="91.8" fill="#F0F0F0" width="1.5" height="2.7"/>
</svg>
